HIERARCHY
ROOT Hips
{
	OFFSET 0.00000 0.00000 0.00000
	CHANNELS 6 Xposition Yposition Zposition Zrotation Yrotation Xrotation 
	JOINT LHipJoint
	{
		OFFSET 0 0 0
		CHANNELS 3 Zrotation Yrotation Xrotation
		JOINT LeftUpLeg
		{
			OFFSET 1.56857 -1.73443 1.15205
			CHANNELS 3 Zrotation Yrotation Xrotation
			JOINT LeftLeg
			{
				OFFSET 2.39362 -6.57643 0.00000
				CHANNELS 3 Zrotation Yrotation Xrotation
				JOINT LeftFoot
				{
					OFFSET 2.50952 -6.89485 0.00000
					CHANNELS 3 Zrotation Yrotation Xrotation
					JOINT LeftToeBase
					{
						OFFSET 0.17171 -0.47178 1.88682
						CHANNELS 3 Zrotation Yrotation Xrotation
						End Site
						{
							OFFSET 0.00000 -0.00000 0.98146
						}
					}
				}
			}
		}
	}
	JOINT RHipJoint
	{
		OFFSET 0 0 0
		CHANNELS 3 Zrotation Yrotation Xrotation
		JOINT RightUpLeg
		{
			OFFSET -1.28153 -1.73443 1.15205
			CHANNELS 3 Zrotation Yrotation Xrotation
			JOINT RightLeg
			{
				OFFSET -2.26861 -6.23296 0.00000
				CHANNELS 3 Zrotation Yrotation Xrotation
				JOINT RightFoot
				{
					OFFSET -2.54143 -6.98254 0.00000
					CHANNELS 3 Zrotation Yrotation Xrotation
					JOINT RightToeBase
					{
						OFFSET -0.23309 -0.64041 1.93119
						CHANNELS 3 Zrotation Yrotation Xrotation
						End Site
						{
							OFFSET -0.00000 -0.00000 1.02013
						}
					}
				}
			}
		}
	}
	JOINT LowerBack
	{
		OFFSET 0 0 0
		CHANNELS 3 Zrotation Yrotation Xrotation
		JOINT Spine
		{
			OFFSET -0.07096 2.10460 -0.27878
			CHANNELS 3 Zrotation Yrotation Xrotation
			JOINT Spine1
			{
				OFFSET -0.00826 2.13662 -0.08279
				CHANNELS 3 Zrotation Yrotation Xrotation
				JOINT Neck
				{
					OFFSET 0 0 0
					CHANNELS 3 Zrotation Yrotation Xrotation
					JOINT Neck1
					{
						OFFSET 0.03239 1.77799 0.24435
						CHANNELS 3 Zrotation Yrotation Xrotation
						JOINT Head
						{
							OFFSET 0.01026 1.74194 -0.49664
							CHANNELS 3 Zrotation Yrotation Xrotation
							End Site
							{
								OFFSET 0.00170 1.83057 -0.19653
							}
						}
					}
				}
				JOINT LeftShoulder
				{
					OFFSET 0 0 0
					CHANNELS 3 Zrotation Yrotation Xrotation
					JOINT LeftArm
					{
						OFFSET 3.19178 1.35907 -0.31412
						CHANNELS 3 Zrotation Yrotation Xrotation
						JOINT LeftForeArm
						{
							OFFSET 4.85247 -0.00000 -0.00000
							CHANNELS 3 Zrotation Yrotation Xrotation
							JOINT LeftHand
							{
								OFFSET 3.55584 -0.00000 0.00000
								CHANNELS 3 Zrotation Yrotation Xrotation
								JOINT LeftFingerBase
								{
									OFFSET 0 0 0
									CHANNELS 3 Zrotation Yrotation Xrotation
									JOINT LeftHandIndex1
									{
										OFFSET 0.69320 -0.00000 0.00000
										CHANNELS 3 Zrotation Yrotation Xrotation
										End Site
										{
											OFFSET 0.55888 -0.00000 0.00000
										}
									}
								}
								JOINT LThumb
								{
									OFFSET 0 0 0
									CHANNELS 3 Zrotation Yrotation Xrotation
									End Site
									{
										OFFSET 0.56741 -0.00000 0.56741
									}
								}
							}
						}
					}
				}
				JOINT RightShoulder
				{
					OFFSET 0 0 0
					CHANNELS 3 Zrotation Yrotation Xrotation
					JOINT RightArm
					{
						OFFSET -3.28999 1.24191 -0.26899
						CHANNELS 3 Zrotation Yrotation Xrotation
						JOINT RightForeArm
						{
							OFFSET -4.64462 -0.00000 0.00000
							CHANNELS 3 Zrotation Yrotation Xrotation
							JOINT RightHand
							{
								OFFSET -3.40703 -0.00000 0.00000
								CHANNELS 3 Zrotation Yrotation Xrotation
								JOINT RightFingerBase
								{
									OFFSET 0 0 0
									CHANNELS 3 Zrotation Yrotation Xrotation
									JOINT RightHandIndex1
									{
										OFFSET -0.61958 -0.00000 0.00000
										CHANNELS 3 Zrotation Yrotation Xrotation
										End Site
										{
											OFFSET -0.49952 -0.00000 0.00000
										}
									}
								}
								JOINT RThumb
								{
									OFFSET 0 0 0
									CHANNELS 3 Zrotation Yrotation Xrotation
									End Site
									{
										OFFSET -0.50715 -0.00000 0.50715
									}
								}
							}
						}
					}
				}
			}
		}
	}
}
MOTION
Frames: 15
Frame Time: .0083333
10.1607 16.8934 -0.4226 0 0 0 0 0 0 -21 0 0 0 0 0 0 0 0 0 0 0 0 0 0 21 0 0 0 0 0 0 0 0 0 0 0 0 0 0 0 0 0 0 0 0 0 0 -16 0 0 21 0 0 11 0 0 0 -8 0 0 0 0 0 0 0 0 0 0 0 0 0 0 0 0 0 0 0 0 8 0 0 0 0 0 0 0 0 0 0 0 0 0 0 0 0 0
10.1607 16.8934 -0.4226 26.8840 67.9082 26.4093 0.0000 0.0000 0.0000 -33.4509 7.6359 1.3744 0.2437 3.1767 8.7710 0.7003 5.4617 -18.7251 0.0000 0.0000 0.0000 0.0000 0.0000 0.0000 -5.1071 4.0568 -7.5680 -1.2421 -7.0667 19.9132 -0.6677 4.0693 -14.5939 -0.0003 0.1195 -0.3282 -11.7439 1.0908 3.6605 -3.7534 1.5809 5.0641 2.6213 0.5534 3.0918 0.0512 -0.8279 -23.5186 1.3267 -1.4429 17.1022 0.2439 -0.5078 9.2521 -0.0000 0.0000 0.0000 -74.8393 2.2898 77.0584 92.9882 -59.9662 -62.5875 -0.0000 0.0000 -12.6558 10.9395 -29.0616 -5.3636 -7.1250 0.0000 -0.0000 -11.5308 0.9872 11.5685 -0.0000 0.0000 0.0000 79.0587 -2.4516 72.2616 -98.8780 59.7001 -67.6808 0.0000 -0.0000 -11.5701 0.0000 0.0000 0.0000 0.0000 0.0000 0.0000 0.0000 -0.0000 0.0000
10.0427 16.9488 -0.3140 17.1076 66.5613 16.3070 0.0000 0.0000 0.0000 -28.7160 8.8095 1.8750 0.2292 3.0814 8.5055 0.6558 7.0061 -19.4227 0.0000 0.0000 0.0000 0.0000 0.0000 0.0000 -0.0641 9.1041 -6.4987 -1.3008 -7.2255 20.3850 -0.7351 2.1437 -15.6108 -0.0008 0.1852 -0.5088 -10.6035 2.2873 5.2360 -2.6261 2.8930 4.9996 3.0799 1.2612 1.9369 -0.0879 -0.9953 -23.1599 1.5670 -1.6741 16.9459 0.3176 -0.5993 9.1411 -0.0000 0.0000 0.0000 -74.8070 2.9046 76.9149 93.5021 -59.9536 -63.0325 -0.0000 0.0000 -11.3424 10.6350 -29.4826 -5.2801 -7.1250 0.0000 -0.0000 -11.7319 0.6136 11.8578 -0.0000 0.0000 0.0000 79.1907 -2.3147 72.4281 -98.4057 59.7313 -67.2730 0.0000 -0.0000 -11.6150 0.0000 0.0000 0.0000 0.0000 0.0000 0.0000 0.0000 -0.0000 0.0000
10.0406 16.9470 -0.3110 17.0814 66.6427 16.2199 0.0000 0.0000 0.0000 -28.6166 8.7941 1.8882 0.2348 3.1184 8.6087 0.6624 6.9678 -19.4606 0.0000 0.0000 0.0000 0.0000 0.0000 0.0000 0.0206 9.0083 -6.4084 -1.3028 -7.2308 20.4010 -0.7549 2.2384 -15.8077 -0.0057 0.4858 -1.3347 -10.5270 2.3527 5.2934 -2.6883 2.9680 4.9230 2.9654 1.3093 1.8195 -0.0845 -1.0841 -22.5669 1.6969 -1.8178 16.7361 0.3436 -0.6558 8.9690 -0.0000 -0.0000 0.0000 -74.5419 2.8650 77.0008 93.6613 -59.9493 -63.1702 -0.0000 0.0000 -11.6872 10.3151 -29.6977 -5.1523 -7.1250 0.0000 -0.0000 -11.9291 0.4444 12.1021 -0.0000 -0.0000 0.0000 79.3270 -2.6146 72.4768 -98.4793 59.7266 -67.3366 0.0000 -0.0000 -11.6154 0.0000 0.0000 0.0000 0.0000 0.0000 0.0000 0.0000 -0.0000 0.0000
10.0002 16.9148 -0.2928 18.2273 68.1027 17.9907 0.0000 0.0000 0.0000 -27.9687 9.3244 -0.3031 0.3374 3.7326 10.3255 0.6906 4.7154 -18.1124 0.0000 0.0000 0.0000 0.0000 0.0000 0.0000 0.4023 8.5320 -7.1558 -1.3462 -7.3455 20.7430 -0.7945 1.4105 -16.4224 -0.0099 0.6428 -1.7664 -10.7824 1.8581 5.1634 -2.6335 2.2948 4.6820 3.1968 0.9759 1.7157 0.0128 -1.0972 -22.3624 1.6118 -1.8460 16.6504 0.2954 -0.6742 8.9025 0.0000 -0.0000 0.0000 -74.3872 2.7517 76.8944 93.7570 -59.9466 -63.2530 -0.0000 0.0000 -11.4843 9.9771 -29.7858 -4.9942 -7.1250 0.0000 -0.0000 -12.1285 0.4019 12.3231 0.0000 -0.0000 0.0000 79.3753 -2.7822 72.5385 -98.5794 59.7200 -67.4230 0.0000 -0.0000 -11.5679 0.0000 0.0000 0.0000 0.0000 0.0000 0.0000 0.0000 -0.0000 0.0000
10.0078 16.9265 -0.2963 17.6607 67.6870 17.2642 0.0000 0.0000 0.0000 -28.0189 9.1178 0.2891 0.3089 3.5733 9.8793 0.6760 5.4482 -18.4594 0.0865 -1.8966 -5.2200 0.0000 0.0000 0.0000 0.4334 8.6121 -7.0220 -1.3534 -7.3644 20.7996 -0.7972 1.8534 -16.3438 -0.0217 0.9508 -2.6136 -10.7245 1.9821 5.0904 -2.5931 2.4894 4.8629 3.2032 1.0596 1.9217 0.3698 -1.2301 -22.4624 1.0359 -2.0170 16.3763 0.0161 -0.7999 8.8153 0.0000 -0.0000 0.0000 -74.4749 2.6359 76.5989 93.7159 -59.9478 -63.2175 -0.0000 0.0000 -10.9051 9.9769 -29.9038 -5.0120 -7.1250 0.0000 -0.0000 -12.1354 0.2864 12.3554 0.0000 -0.0000 0.0000 79.2767 -2.5293 72.7553 -98.4229 59.7302 -67.2878 0.0000 -0.0000 -11.4280 0.0000 0.0000 0.0000 0.0000 0.0000 0.0000 0.0000 -0.0000 0.0000
10.0135 16.9356 -0.2960 17.1410 67.6561 16.6635 0.0000 0.0000 0.0000 -27.9103 8.8525 0.6816 0.2953 3.4945 9.6585 0.6740 5.7669 -18.6664 0.0739 -1.7541 -4.8265 0.0000 0.0000 0.0000 0.6397 8.4678 -6.8420 -1.3580 -7.3765 20.8357 -0.8088 2.3671 -16.3555 -0.0290 1.1002 -3.0247 -10.6065 2.0152 5.0354 -2.5020 2.5537 4.9788 3.2344 1.0832 2.0654 1.1041 -1.8159 -22.4087 0.1382 -2.8558 15.7908 -0.5202 -1.2557 8.5806 0.0000 0.0000 0.0000 -74.5580 2.5320 76.4959 93.5661 -59.9519 -63.0879 -0.0000 0.0000 -10.7295 10.8332 -30.0854 -5.4795 -7.1250 0.0000 -0.0000 -11.6549 -0.0050 11.9048 0.0000 0.0000 0.0000 79.2428 -2.3661 72.9320 -98.0479 59.7538 -66.9639 0.0000 -0.0000 -11.0757 0.0000 0.0000 0.0000 0.0000 0.0000 0.0000 0.0000 -0.0000 0.0000
10.0169 16.9413 -0.2928 16.8326 67.5865 16.2659 0.0000 0.0000 0.0000 -27.8747 8.6765 0.9944 0.2863 3.4409 9.5089 0.6759 5.9998 -18.8575 0.0535 -1.4925 -4.1050 0.0000 0.0000 0.0000 0.7536 8.3908 -6.6813 -1.3549 -7.3685 20.8117 -0.8121 2.9334 -16.2880 -0.0196 0.9029 -2.4818 -10.5569 2.1028 5.1056 -2.4646 2.6611 4.9855 3.2387 1.1392 2.0184 0.9288 -1.9835 -22.3243 0.2470 -3.0499 15.7977 -0.4804 -1.3459 8.5721 -0.0000 0.0000 0.0000 -74.5171 2.5578 76.6411 93.4961 -59.9538 -63.0273 -0.0000 0.0000 -10.7867 12.1606 -30.2357 -6.1930 -7.1250 0.0000 -0.0000 -10.9035 -0.3375 11.1713 -0.0000 0.0000 0.0000 79.2712 -2.3947 73.0715 -97.6975 59.7749 -66.6612 0.0000 -0.0000 -10.9110 0.0000 0.0000 0.0000 0.0000 0.0000 0.0000 0.0000 -0.0000 0.0000
10.0159 16.9465 -0.2886 16.4647 67.4670 15.8181 0.0000 0.0000 0.0000 -27.7793 8.5906 1.1906 0.2828 3.4199 9.4500 0.6816 6.2158 -19.0778 0.0475 -1.4065 -3.8680 0.0000 0.0000 0.0000 0.9099 8.3775 -6.6177 -1.3517 -7.3600 20.7863 -0.8020 3.2485 -16.1341 -0.0205 0.9234 -2.5380 -10.4788 2.2057 5.2008 -2.4567 2.7868 4.9872 3.1943 1.2069 1.9520 0.5051 -2.0917 -21.9678 0.8253 -3.1756 15.5707 -0.2270 -1.3709 8.4516 0.0000 -0.0000 0.0000 -74.3829 2.5194 76.7880 93.3787 -59.9568 -62.9256 -0.0000 0.0000 -10.8245 13.0223 -30.3832 -6.6719 -7.1250 0.0000 -0.0000 -10.4204 -0.6094 10.7086 0.0000 -0.0000 0.0000 79.2698 -2.4682 73.2059 -97.7165 59.7738 -66.6776 0.0000 -0.0000 -11.0567 0.0000 0.0000 0.0000 0.0000 0.0000 0.0000 0.0000 -0.0000 0.0000
10.0174 16.9492 -0.2848 16.1983 67.7355 15.4834 0.0000 0.0000 0.0000 -27.5628 8.5165 1.2786 0.2868 3.4438 9.5169 0.6946 6.1428 -19.1580 0.0602 -1.5835 -4.3559 0.0000 0.0000 0.0000 1.1728 7.9713 -6.4951 -1.3506 -7.3570 20.7775 -0.8076 3.5198 -16.1560 -0.0280 1.0808 -2.9710 -10.2888 2.1791 5.2874 -2.4263 2.7496 5.0259 3.1208 1.1923 1.9533 0.3633 -2.1635 -21.7252 1.0441 -3.2683 15.3761 -0.1385 -1.4028 8.3510 -0.0000 -0.0000 0.0000 -74.2761 2.3834 76.8259 93.2787 -59.9593 -62.8391 -0.0000 0.0000 -11.0152 13.0998 -30.5786 -6.7513 -7.1250 0.0000 -0.0000 -10.3918 -0.8142 10.7153 -0.0000 -0.0000 0.0000 79.2838 -2.5119 73.2341 -97.8630 59.7651 -66.8042 0.0000 -0.0000 -11.1197 0.0000 0.0000 0.0000 0.0000 0.0000 0.0000 0.0000 -0.0000 0.0000
10.0183 16.9506 -0.2773 16.1786 68.0614 15.4048 0.0000 0.0000 0.0000 -27.4123 8.4433 1.3643 0.2873 3.4471 9.5261 0.6912 6.0560 -19.0592 0.0757 -1.7749 -4.8841 0.0000 0.0000 0.0000 1.3485 7.5597 -6.3232 -1.3573 -7.3745 20.8296 -0.8314 3.9352 -16.3519 -0.0173 0.8498 -2.3356 -10.2148 2.1370 5.3401 -2.3915 2.6917 5.0533 3.1178 1.1641 1.9607 0.5370 -2.1810 -21.8131 0.8192 -3.3032 15.4966 -0.2489 -1.4314 8.3995 -0.0000 0.0000 0.0000 -74.2556 2.3443 76.7796 93.3693 -59.9571 -62.9175 -0.0000 0.0000 -11.3327 12.8589 -30.7414 -6.6555 -7.1250 0.0000 -0.0000 -10.5426 -0.9392 10.8991 -0.0000 0.0000 0.0000 79.3218 -2.5370 73.2320 -97.8739 59.7644 -66.8136 0.0000 -0.0000 -11.0490 0.0000 0.0000 0.0000 0.0000 0.0000 0.0000 0.0000 -0.0000 0.0000
10.0112 16.9527 -0.2654 16.0974 68.1173 15.3473 0.0000 0.0000 0.0000 -27.2764 8.4111 1.3145 0.2894 3.4597 9.5614 0.6797 6.0663 -18.9467 0.0745 -1.7605 -4.8441 0.0000 0.0000 0.0000 1.4931 7.5482 -6.2902 -1.3642 -7.3926 20.8839 -0.8439 4.0890 -16.4624 -0.0144 0.7750 -2.1299 -10.2441 2.2061 5.3401 -2.3761 2.7767 5.0066 3.1446 1.2090 1.8987 0.7394 -2.2481 -22.0832 0.5693 -3.4155 15.8583 -0.3875 -1.4935 8.5601 0.0000 0.0000 0.0000 -74.1942 2.4002 76.8458 93.4928 -59.9539 -63.0243 -0.0000 0.0000 -11.4451 12.7112 -30.8566 -6.5992 -7.1250 0.0000 -0.0000 -10.6362 -1.0308 11.0161 0.0000 0.0000 0.0000 79.4229 -2.6692 73.1031 -97.8307 59.7670 -66.7762 0.0000 -0.0000 -10.8056 -19.7749 -31.4832 10.6342 7.1250 -0.0000 -0.0000 14.5523 -62.4560 -6.2439
10.0035 16.9565 -0.2528 15.6153 68.0165 14.8882 0.0000 0.0000 0.0000 -27.0047 8.4207 1.3043 0.2903 3.4646 9.5752 0.6713 6.2297 -18.9809 0.0759 -1.7774 -4.8909 0.0000 0.0000 0.0000 1.8074 7.7623 -6.2252 -1.3617 -7.3861 20.8645 -0.8499 4.0169 -16.5303 -0.0322 1.1588 -3.1859 -10.1262 2.3587 5.3260 -2.3576 2.9809 4.9833 3.0887 1.3154 1.8582 0.7835 -2.3062 -22.4394 0.6067 -3.5286 16.3284 -0.4061 -1.5312 8.7822 0.0000 0.0000 0.0000 -74.0588 2.3069 77.0334 93.3848 -59.9567 -62.9309 -0.0000 0.0000 -11.2721 12.6342 -30.9669 -6.5792 -7.1250 0.0000 -0.0000 -10.6889 -1.1284 11.0906 0.0000 0.0000 0.0000 79.5383 -2.8230 72.8899 -97.8161 59.7679 -66.7636 0.0000 -0.0000 -10.4275 -19.3964 -31.9449 10.5526 7.1250 -0.0000 -0.0000 15.3405 -62.8056 -6.7166
10.0047 16.9566 -0.2409 15.6293 68.0166 14.9111 0.0000 0.0000 0.0000 -26.9789 8.3724 1.3533 0.2887 3.4556 9.5498 0.6665 6.3397 -19.0134 0.0880 -1.9134 -5.2663 0.0000 0.0000 0.0000 1.8686 7.7405 -6.1217 -1.3489 -7.3527 20.7647 -0.8564 4.0595 -16.5910 -0.0530 1.4860 -4.0871 -10.1199 2.4455 5.2323 -2.3871 3.1087 4.9773 3.0519 1.3786 1.8897 0.9141 -2.2908 -22.5741 0.5497 -3.5427 16.5462 -0.4523 -1.5319 8.8768 0.0000 0.0000 0.0000 -73.9531 2.2578 77.1057 93.2107 -59.9610 -62.7802 -0.0000 0.0000 -10.7661 13.0153 -31.1340 -6.8153 -7.1250 0.0000 -0.0000 -10.4858 -1.3506 10.9128 0.0000 0.0000 0.0000 79.5471 -2.9982 72.8337 -97.8275 59.7672 -66.7735 0.0000 -0.0000 -9.8137 -18.5964 -31.9824 10.1048 7.1250 -0.0000 -0.0000 16.2734 -62.6348 -7.0708
10.0182 16.9562 -0.2363 16.3689 67.9851 15.5771 0.0000 0.0000 0.0000 -27.4648 8.1197 1.6737 0.2751 3.3736 9.3208 0.6619 6.6001 -19.1664 0.0954 -1.9915 -5.4821 0.0000 0.0000 0.0000 1.4245 7.3913 -5.9617 -1.3138 -7.2601 20.4883 -0.8394 4.4052 -16.3901 -0.0467 1.3951 -3.8366 -10.2611 2.5054 5.1546 -2.5198 3.1952 4.9393 2.9896 1.4225 1.8848 1.2031 -2.4801 -22.0722 0.0805 -3.7792 16.0592 -0.6790 -1.6874 8.6058 -0.0000 0.0000 0.0000 -73.8700 2.3334 77.1434 93.0912 -59.9639 -62.6767 -0.0000 0.0000 -10.4255 13.6443 -31.3283 -7.1934 -7.1250 0.0000 -0.0000 -10.1453 -1.6396 10.5971 -0.0000 0.0000 0.0000 79.5939 -3.1930 72.5919 -98.3565 59.7345 -67.2305 0.0000 -0.0000 -10.0389 -17.6358 -33.0004 9.8232 7.1250 -0.0000 -0.0000 18.2145 -63.3524 -8.2494
